<svg xmlns="http://www.w3.org/2000/svg"  viewBox="0 0 100 100" width="200px" height="200px" fill-rule="evenodd" clip-rule="evenodd"><path fill-rule="evenodd" d="M50.337,95.023 c-2.722,0-4.821-0.21-5.214-0.252c-1.167-0.128-2.27-0.563-3.201-1.261c-0.109-0.071-0.336-0.175-0.521-0.234 c-1.178,0.992-2.653,1.532-4.191,1.532c-0.23,0-0.461-0.013-0.691-0.037c-1.58-0.165-3.041-0.91-4.107-2.077 c-0.554,0.14-1.127,0.211-1.712,0.211c-0.739,0-1.474-0.116-2.184-0.346c-0.752-0.241-1.453-0.618-2.074-1.118 c-2.28-1.825-3.734-3.694-4.709-5.123c-0.07-0.037-0.139-0.075-0.208-0.114C21,83,17.252,82.826,15.859,80.299 C14.649,80.243,15.005,77.69,14,77c-1.95-1.348-4.531-1.471-4.307-3.813c0.283-2.967,0.025-4.21-2.137-6.208 c-4.106-3.793-4.654-9.504-1.679-15.464c-0.227-0.298-0.461-0.613-0.707-0.949c-1.385-1.901-1.636-4.408-0.654-6.545 c0.725-1.576,2.04-2.775,3.622-3.37c0.095-0.26,0.206-0.515,0.335-0.764c0.91-1.764,2.427-3.295,4.53-4.578 c0.06-2.115,1.138-4.062,2.911-5.235c0.682-0.449,1.429-0.763,2.209-0.932c0.991-10.245,9.651-18.282,20.151-18.282 c2.948,0.001,5.802,0.631,8.424,1.844c3.378-2.423,7.414-3.725,11.694-3.725C66.315,8.979,72,20,76.93,20.418 c0.776-0.318,1.61-0.483,2.461-0.483c1.093,0,2.176,0.278,3.134,0.806c-0.626,3.274-0.904,3.855,3.343,5.128 c4.437,2.497,4.797,7.222,5.402,8.166c1.085,1.688,1.256,3.933,0.607,5.798l2.132,3.295c0.757,1.052,0.834,0.455,2.835,1.383 c0.311,0.229,0.62,0.473,0.924,0.734c1.501,1.289,2.326,3.165,2.26,5.146c-0.11,3.374-1.679,6.11-4.347,7.783 c-0.466,2.893-1.351,5.749-2.642,8.534c0.011,2.59,0.356,5.242,0.36,5.272c0.248,1.857-0.317,3.73-1.55,5.141 c-1.236,1.412-3.019,2.221-4.893,2.221h-1.109c-1.368,1.471-2.725,2.486-3.94,3.188c-0.466,1.157-1.148,2.466-2.149,3.828 c-1.938,2.641-4.843,4.244-8.284,4.604l-0.945,0.954c-0.958,0.964-2.163,1.595-3.493,1.828c-0.202,0.038-1.61,0.277-4.129,0.277 c-0.949,0-1.944-0.034-2.971-0.103C57.253,94.652,54.031,95.023,50.337,95.023z" clip-rule="evenodd" opacity=".35"/><path fill="#f2f2f2" fill-rule="evenodd" d="M48.337,93.023c-2.722,0-4.821-0.21-5.214-0.252 c-1.167-0.128-2.27-0.563-3.201-1.261c-0.109-0.071-0.336-0.175-0.521-0.234c-1.178,0.992-2.653,1.532-4.191,1.532 c-0.23,0-0.461-0.013-0.691-0.037c-1.58-0.165-3.041-0.91-4.107-2.077c-0.554,0.14-1.127,0.211-1.712,0.211 c-0.739,0-1.474-0.116-2.184-0.346c-0.752-0.241-1.453-0.618-2.074-1.118c-2.28-1.825-3.734-3.694-4.709-5.123 c-0.07-0.037-0.139-0.075-0.208-0.114c-2.344-1.351-4.273-3.378-5.666-5.905c-1.21-0.056-2.372-0.445-3.377-1.136 c-1.95-1.348-3.014-3.634-2.79-5.977c0.283-2.967,0.025-4.21-2.137-6.208c-4.106-3.793-4.654-9.504-1.679-15.464 c-0.227-0.298-0.461-0.613-0.707-0.949c-1.385-1.901-1.636-4.408-0.654-6.545c0.725-1.576,2.04-2.775,3.622-3.37 c0.095-0.26,0.206-0.515,0.335-0.764c0.91-1.764,2.427-3.295,4.53-4.578c0.06-2.115,1.138-4.062,2.911-5.235 c0.682-0.449,1.429-0.763,2.209-0.932c0.991-10.245,9.651-18.282,20.151-18.282c2.948,0.001,5.802,0.631,8.424,1.844 c3.378-2.423,7.414-3.725,11.694-3.725c7.924,0,15.114,4.689,18.539,11.439c0.776-0.318,1.61-0.483,2.461-0.483 c1.093,0,2.176,0.278,3.134,0.806c1.915,1.049,3.157,2.975,3.343,5.128c4.437,2.497,7.521,7.071,8.126,8.015 c1.085,1.688,1.308,3.798,0.659,5.663l0.975,1.358c0.757,1.052,1.177,2.317,1.216,3.605c0.311,0.229,0.62,0.473,0.924,0.734 c1.501,1.289,2.326,3.165,2.26,5.146c-0.11,3.374-1.679,6.11-4.347,7.783c-0.466,2.893-1.351,5.749-2.642,8.534 c0.011,2.59,0.356,5.242,0.36,5.272c0.248,1.857-0.317,3.73-1.55,5.141c-1.236,1.412-3.019,2.221-4.893,2.221h-1.109 c-1.368,1.471-2.725,2.486-3.94,3.188c-0.466,1.157-1.148,2.466-2.149,3.828c-1.938,2.641-4.843,4.244-8.284,4.604l-0.945,0.954 c-0.958,0.964-2.163,1.595-3.493,1.828c-0.202,0.038-1.61,0.277-4.129,0.277c-0.949,0-1.944-0.034-2.971-0.103 C55.253,92.652,52.031,93.023,48.337,93.023z" clip-rule="evenodd"/><path fill="#70bfff" fill-rule="evenodd" d="M85.448,45.505c-0.114-0.429-0.241-0.852-0.38-1.269 l1.892-1.276l-3.27-4.555l1.51-2.485c0,0-2.763-4.303-6.12-5.901c-3.358-1.596-4.44,0.621-4.44,0.621l1.76-5.28 c0,0-1.242,1.897-7.043,2.574C69.321,20.675,63.428,14.8,56.16,14.8c-4.304,0-8.115,2.069-10.524,5.257 c-2.34-2.132-5.441-3.443-8.856-3.444c-0.002,0-0.004,0-0.006,0c-7.276-0.002-13.175,5.895-13.177,13.17 c0,1.788,0.359,3.492,1.004,5.046c-2.221,0.041-6.295,0.178-6.747-0.796c-0.005,2.256,1.416,2.899,1.416,2.899 s-4.163,1.376-5.656,4.267c5.129,0.565,4.611,0.931,4.611,0.931s-0.197,2.152-8.298,2.795c3.032,4.159,3.689,3.728,3.689,3.728 s-6.922,7.343-2.767,11.181c4.155,3.839,4.967,7.464,4.611,11.181c1.818-0.898,2.758-1.375,3.231-1.621 c0.192,0.285,0.391,0.567,0.597,0.845c0.319,1.829,1.336,5.493,4.47,7.299c1.068-1.297,1.461,2.332,5.532,5.592 c0.971,0.313,0.922-1.864,0.922-1.864s3.692,1.119,5.532,3.728c0.528-3.23,8.298,0,8.298,0s7.793,0.855,12.908-0.931 c4.252,0.389,6.454,0,6.454,0l2.767-2.795c0,0,3.626,0.734,5.532-1.864c1.908-2.598,1.844-4.659,1.844-4.659 s2.089-0.009,4.609-2.795s2.767-1.864,2.767-1.864h2.767c0,0-0.535-3.997-0.371-7.427c1.85-3.568,2.871-7.387,2.89-11.26 c1.607-0.165,4.189-0.628,4.271-3.159C88.989,46.959,86.457,46.158,85.448,45.505z" clip-rule="evenodd"/><path fill="#fff3df" fill-rule="evenodd" d="M37,21c-4.971,0-9,4.029-9,9s4.029,9,9,9s9-4.029,9-9 S41.971,21,37,21z" clip-rule="evenodd"/><path fill="#fff3df" fill-rule="evenodd" d="M55.5,19c-5.247,0-9.5,4.253-9.5,9.5s4.253,9.5,9.5,9.5 s9.5-4.253,9.5-9.5S60.747,19,55.5,19z" clip-rule="evenodd"/><circle cx="53.5" cy="27.5" r="3.5" fill="#40396e" fill-rule="evenodd" clip-rule="evenodd"/><circle cx="39.5" cy="32.5" r="3.5" fill="#40396e" fill-rule="evenodd" clip-rule="evenodd"/><path fill="#2b59a1" fill-rule="evenodd" d="M77.783,38.352c-0.602-0.764-1.709-0.891-2.471-0.296 c-1.177,0.926-4.162,2.952-5.346,3.764c0.746,0.619,2.427,1.23,2.427,1.23c-1.77,1.416-3.826,1.279-6.388,0.927 c0,0.985,3,2.992,3,2.992s-3.008,2.452-7.838-0.357c0.027,0.003,0.153,2.051,2.934,4.351c-4.298,0.455-5.612-1.289-7.061-2.723 c-1.408,3.077,0.033,5.782,0.033,5.782s-5.157,0.354-6.946-3.854c-0.046,0.011-0.093,0.021-0.139,0.032 c0.866,3.889-1.999,5.768-5.134,6.754c0.354-1.441,1.241-3.886,0.128-5.28c-0.665,1.786-6.339,5.128-9.979,5.305 c1.289-3.135,1.025-4.982,0.986-4.98C36.014,52,34,55,29,56c0.081-0.095,1.124-1.346,1.199-3.848 c0.005-0.007-5.258-0.303-9.602-2.074c-0.928-0.275-1.913,0.238-2.2,1.165c-0.285,0.928,0.234,1.913,1.163,2.198 c0.296,0.092,2.682,1.327,5.799,1.839c3.135,6.09,10.877,19.362,28.477,17.602C72.278,71.038,73.485,51.484,72.88,44.72 c1.42-0.959,3.193-2.783,4.608-3.897C78.252,40.221,78.384,39.114,77.783,38.352z" clip-rule="evenodd"/><g><path fill="none" stroke="#40396e" stroke-linecap="round" stroke-linejoin="round" stroke-miterlimit="10" stroke-width="3" d="M86.779,45.336c-0.119-0.446-0.25-0.884-0.394-1.317l1.963-1.324l-3.393-4.726l1.567-2.578c0,0-2.867-4.465-6.349-6.123 c-3.484-1.656-3.229-0.223-4.607,0.645c1.783-3.025,1.826-5.478,1.826-5.478s-4.021,2.671-6.852,2.671 C70.502,19.573,63.921,13.5,56.38,13.5c-4.465,0-8.408,2.125-10.908,5.432c-2.428-2.212-5.65-3.432-9.193-3.433 c-0.002,0-0.036,0-0.038,0c-7.549-0.002-13.711,6.053-13.713,13.602c0,1.855,0.373,3.623,1.042,5.236 c-2.261,0.185-3.306,0.337-6.07-0.843c0,1.551,1.635,3.775,1.635,3.775s-5.339,0.6-6.887,3.6c5.321,0.586,4.784,0.966,4.784,0.966 s-0.205,2.233-8.61,2.9c3.146,4.315,3.827,3.868,3.827,3.868s-6.594,7.618-2.283,11.601c4.311,3.983,4.566,7.744,4.197,11.601 c1.886-0.931,2.861-1.426,3.353-1.682c0.199,0.296,0.405,0.588,0.619,0.877c0.331,1.897,1.386,5.699,4.638,7.573 c1.108-1.346,1.516,2.42,5.739,5.802c1.008,0.325,0.957-1.934,0.957-1.934s3.831,1.161,5.739,3.868c3.864-3.567,8.61,0,8.61,0 s8.086,0.887,13.393-0.966c4.412,0.404,6.696,0,6.696,0l2.871-2.9c0,0,3.762,0.762,5.739-1.934 c1.979-2.695,1.914-4.834,1.914-4.834s2.168-0.009,4.783-2.9c2.615-2.891,2.871-1.934,2.871-1.934h2.871 c0,0-0.555-4.147-0.385-7.706c1.919-3.701,2.978-7.664,2.998-11.683c1.667-0.172,3.877-0.652,3.963-3.278 C89.984,46.845,87.826,46.014,86.779,45.336z" clip-rule="evenodd"/><path fill="none" d="M53.52,23.6c-1.944,0-3.52,1.576-3.52,3.52s1.576,3.52,3.52,3.52 c1.944,0,3.52-1.576,3.52-3.52S55.464,23.6,53.52,23.6z M39.44,28.88c-1.944,0-3.52,1.576-3.52,3.52s1.576,3.52,3.52,3.52 c1.944,0,3.52-1.576,3.52-3.52S41.384,28.88,39.44,28.88z" clip-rule="evenodd"/><path fill="none" d="M77.783,38.352c-0.602-0.764-1.709-0.891-2.471-0.296 c-1.177,0.926-2.358,1.772-3.543,2.584c0.635,0.31,1.111,0.56,1.111,0.56c0.424,0.803-5.528,3.751-6.838,3.596 c0.715,0.278,3.212,1.278,3.191,1.294c-1.096,0.898-4.176,1.376-5.35,1.102c-0.845-0.197-1.651-0.458-2.716-0.579 c-0.234,0.044,2.492,2.992,2.372,3.025c-4.118,1.19-6.5-1.397-6.5-1.397v5.28c0,0-4.808-0.405-6.913-3.351 c-0.046,0.011-0.093,0.021-0.139,0.032c0.028,2.504-2.698,6.324-3.508,6.839c0.172-1.352-0.385-3.971-1.498-5.364 c-0.665,1.786-1.551,3.736-3.745,5.364c-0.204-0.157-0.037-3.52-0.037-3.52s-1.47,1.904-3.494,2.754 c-0.139-3.619-0.062-4.34-0.033-4.477c-0.039,0.002-0.076,0.002-0.114,0.004c-0.486,0.171-2.344,0.966-3.399,3.48 c-1.089-0.847-1.505-2.851-1.755-3.506c-0.009,0-0.016,0-0.023-0.002c-0.253,0.014-0.725,2.26-3.502,3.508 c-0.333-0.285-0.227-3.267-3.525-4.171c0.005-0.007,0.028-0.019,0.037-0.028c-2.973-0.468-4.724-0.982-4.794-1.003 c-0.928-0.275-1.913,0.238-2.2,1.165c-0.285,0.928,0.234,1.913,1.163,2.198c0.296,0.092,2.682,1.327,5.799,1.839 c3.135,6.09,12.32,19.36,29.92,17.6c18.441-1.844,18.205-21.396,17.6-28.16c1.42-0.959,3.193-2.783,4.608-3.897 C78.252,40.221,78.384,39.114,77.783,38.352z" clip-rule="evenodd"/></g><path fill="none" d="M92.508,47.036c-1.157-0.994-2.546-1.707-3.663-2.279 c-0.17-0.087-0.337-0.172-0.494-0.255l0.835-0.563c0.336-0.227,0.566-0.579,0.638-0.979c0.071-0.399-0.021-0.811-0.258-1.14 l-2.813-3.919l1.051-1.73c0.298-0.49,0.291-1.107-0.02-1.59c-0.126-0.197-3.142-4.846-6.968-6.667 c-0.957-0.455-1.736-0.724-2.395-0.839c0.442-1.523,0.468-2.545,0.469-2.614c0.01-0.557-0.291-1.073-0.779-1.341 c-0.489-0.27-1.086-0.243-1.55,0.064c-0.796,0.527-2.85,1.714-4.635,2.204c-0.943-7.427-7.689-13.41-15.536-13.41 c-4.272,0-8.245,1.751-11.115,4.854c-2.602-1.926-5.742-2.972-8.999-2.973c-0.001,0-0.002,0-0.004,0 c-8.404,0-15.243,6.837-15.245,15.242c0,1.313,0.167,2.605,0.498,3.86c-0.001,0-0.003,0-0.005,0c-1.005,0-1.879-0.185-3.432-0.848 c-0.463-0.196-0.995-0.149-1.416,0.128C16.253,32.521,16,32.99,16,33.494c0,0.953,0.526,1.769,1.237,2.437 c-2.374,0.813-5.255,2.183-6.323,4.251c-0.227,0.438-0.222,0.961,0.011,1.396s0.667,0.728,1.157,0.782 c0.401,0.044,0.764,0.087,1.093,0.127c-1.094,0.294-2.655,0.577-4.873,0.753c-0.542,0.043-1.018,0.375-1.244,0.868 C6.832,44.603,6.89,45.18,7.21,45.619c1.042,1.43,1.973,2.593,2.819,3.38c-2.505,3.473-4.788,8.882-1.08,12.307 c3.621,3.345,4.106,6.33,3.721,10.357c-0.052,0.541,0.194,1.068,0.642,1.378c0.448,0.308,1.029,0.352,1.516,0.109 c0.835-0.412,1.494-0.74,2.011-1c0.547,2.365,1.893,5.825,5.186,7.723c0.276,0.159,0.588,0.215,0.893,0.182 c0.091,0.138,0.186,0.286,0.273,0.422c0.82,1.277,2.061,3.208,4.384,5.068c0.142,0.114,0.304,0.201,0.477,0.257 c0.638,0.206,1.304,0.102,1.825-0.286c0.342-0.255,0.58-0.603,0.745-0.983c1.091,0.536,2.493,1.408,3.361,2.641 c0.249,0.354,0.638,0.582,1.068,0.627c0.429,0.046,0.857-0.096,1.176-0.389c2.884-2.66,6.542-0.015,6.691,0.097 c0.215,0.161,0.47,0.263,0.738,0.292c0.164,0.018,2.099,0.224,4.682,0.224c2.736,0,6.2-0.231,9.056-1.16 c4.354,0.37,6.677-0.026,6.776-0.045c0.306-0.054,0.586-0.201,0.805-0.421l2.356-2.38c1.47,0.096,4.505-0.044,6.396-2.621 c1.326-1.806,1.857-3.414,2.068-4.475c1.104-0.35,2.756-1.178,4.532-3.141c0.764-0.845,1.243-1.261,1.509-1.461 c0.082,0.014,0.165,0.021,0.249,0.021h2.871c0.433,0,0.844-0.187,1.128-0.512c0.285-0.326,0.416-0.759,0.358-1.188 c-0.005-0.038-0.502-3.811-0.387-7.116c1.773-3.513,2.771-7.136,2.975-10.794c2.578-0.595,3.922-2.107,4-4.509 C93.045,47.769,92.853,47.332,92.508,47.036z" clip-rule="evenodd"/><path fill="none" d="M92.508,47.036c-1.157-0.994-2.546-1.707-3.663-2.279 c-0.17-0.087-0.337-0.172-0.494-0.255l0.835-0.563c0.336-0.227,0.566-0.579,0.638-0.979c0.071-0.399-0.021-0.811-0.258-1.14 l-2.813-3.919l1.051-1.73c0.298-0.49,0.291-1.107-0.02-1.59c-0.126-0.197-3.142-4.846-6.968-6.667 c-0.957-0.455-1.736-0.724-2.395-0.839c0.442-1.523,0.468-2.545,0.469-2.614c0.01-0.557-0.291-1.073-0.779-1.341 c-0.489-0.27-1.086-0.243-1.55,0.064c-0.796,0.527-2.85,1.714-4.635,2.204c-0.943-7.427-7.689-13.41-15.536-13.41 c-4.272,0-8.245,1.751-11.115,4.854c-2.602-1.926-5.742-2.972-8.999-2.973c-0.001,0-0.002,0-0.004,0 c-8.404,0-15.243,6.837-15.245,15.242c0,1.313,0.167,2.605,0.498,3.86c-0.001,0-0.003,0-0.005,0c-1.005,0-1.879-0.185-3.432-0.848 c-0.463-0.196-0.995-0.149-1.416,0.128C16.253,32.521,16,32.99,16,33.494c0,0.953,0.526,1.769,1.237,2.437 c-2.374,0.813-5.255,2.183-6.323,4.251c-0.227,0.438-0.222,0.961,0.011,1.396s0.667,0.728,1.157,0.782 c0.401,0.044,0.764,0.087,1.093,0.127c-1.094,0.294-2.655,0.577-4.873,0.753c-0.542,0.043-1.018,0.375-1.244,0.868 C6.832,44.603,6.89,45.18,7.21,45.619c1.042,1.43,1.973,2.593,2.819,3.38c-2.505,3.473-4.788,8.882-1.08,12.307 c3.621,3.345,4.106,6.33,3.721,10.357c-0.052,0.541,0.194,1.068,0.642,1.378c0.448,0.308,1.029,0.352,1.516,0.109 c0.835-0.412,1.494-0.74,2.011-1c0.547,2.365,1.893,5.825,5.186,7.723c0.276,0.159,0.588,0.215,0.893,0.182 c0.091,0.138,0.186,0.286,0.273,0.422c0.82,1.277,2.061,3.208,4.384,5.068c0.142,0.114,0.304,0.201,0.477,0.257 c0.638,0.206,1.304,0.102,1.825-0.286c0.342-0.255,0.58-0.603,0.745-0.983c1.091,0.536,2.493,1.408,3.361,2.641 c0.249,0.354,0.638,0.582,1.068,0.627c0.429,0.046,0.857-0.096,1.176-0.389c2.884-2.66,6.542-0.015,6.691,0.097 c0.215,0.161,0.47,0.263,0.738,0.292c0.164,0.018,2.099,0.224,4.682,0.224c2.736,0,6.2-0.231,9.056-1.16 c4.354,0.37,6.677-0.026,6.776-0.045c0.306-0.054,0.586-0.201,0.805-0.421l2.356-2.38c1.47,0.096,4.505-0.044,6.396-2.621 c1.326-1.806,1.857-3.414,2.068-4.475c1.104-0.35,2.756-1.178,4.532-3.141c0.764-0.845,1.243-1.261,1.509-1.461 c0.082,0.014,0.165,0.021,0.249,0.021h2.871c0.433,0,0.844-0.187,1.128-0.512c0.285-0.326,0.416-0.759,0.358-1.188 c-0.005-0.038-0.502-3.811-0.387-7.116c1.773-3.513,2.771-7.136,2.975-10.794c2.578-0.595,3.922-2.107,4-4.509 C93.045,47.769,92.853,47.332,92.508,47.036z" clip-rule="evenodd"/></svg>